<svg xmlns="http://www.w3.org/2000/svg" width="85" height="30" viewBox="0 0 85 30">
    <path fill="#FFF" fill-rule="nonzero" d="M51.78 20.445c2.864-1.778 4.756-5.535 4.756-9.345 0-7.628-6.144-11.1-11.888-11.1h-13.96c-.718.02-1.29.605-1.29 1.32V30h4.885a2.653 2.653 0 0 0 1.876-.768 2.626 2.626 0 0 0 .778-1.865v-5.122h6.784L49.141 30h8.149l-6.43-9 .92-.555zm-7.041-5.078h-7.885V6.75h7.885a4.21 4.21 0 0 1 3.107 1.221 4.166 4.166 0 0 1 1.227 3.091 4.234 4.234 0 0 1-1.252 3.065 4.278 4.278 0 0 1-3.082 1.24zM58.044 1.32v5.512h9.724V30h4.892a2.64 2.64 0 0 0 2.646-2.633V6.832h7.485c1.22 0 2.209-.983 2.209-2.197V0H59.37c-.732 0-1.326.591-1.326 1.32zM0 1.32v5.512h9.694V30h4.892a2.647 2.647 0 0 0 2.654-2.633V6.832h7.478a2.21 2.21 0 0 0 2.216-2.197V0H1.304C.58.012 0 .6 0 1.32z"/>
</svg>
